<svg xmlns="http://www.w3.org/2000/svg" viewBox="0 0 47 35" width="47" height="35">
	<style>
		tspan { white-space:pre }
		.shp0 { fill: #f16d7f } 
	</style>
	<g id="Feature">
		<g id="Feature box">
			<path id="Forma 1" class="shp0" d="M42.37 8.55C39.81 8.55 37.73 10.59 37.73 13.09C37.73 14.43 38.33 15.63 39.29 16.46L33.42 18.52L25.08 8.82C26.88 8.19 28.18 6.53 28.18 4.56C28.18 2.05 26.1 0.01 23.53 0.01C20.97 0.01 18.89 2.05 18.89 4.56C18.89 6.51 20.16 8.16 21.93 8.81L13.58 18.52L7.72 16.46C8.67 15.63 9.28 14.43 9.28 13.09C9.28 10.59 7.19 8.55 4.63 8.55C2.07 8.55 -0.02 10.59 -0.02 13.09C-0.02 15.22 1.5 17.01 3.53 17.49L3.53 29.81C3.53 29.89 3.56 29.97 3.58 30.05C3.55 30.17 3.53 30.3 3.53 30.44C3.53 34.86 21.46 34.99 23.5 34.99C25.54 34.99 43.47 34.86 43.47 30.44C43.47 30.3 43.45 30.17 43.42 30.05C43.44 29.97 43.47 29.89 43.47 29.81L43.47 17.49C45.5 17.01 47.02 15.22 47.02 13.09C47.02 10.59 44.93 8.55 42.37 8.55ZM21.15 4.56C21.15 3.27 22.22 2.22 23.54 2.22C24.85 2.22 25.92 3.27 25.92 4.56C25.92 5.84 24.85 6.89 23.54 6.89C22.22 6.89 21.15 5.84 21.15 4.56ZM13.56 20.87C14 21.02 14.5 20.89 14.8 20.53L23.5 10.42L32.2 20.53C32.5 20.89 33 21.02 33.45 20.87L41.21 18.14L41.21 28.09C36.32 25.97 25.09 25.89 23.5 25.89C21.91 25.89 10.68 25.97 5.79 28.09L5.79 18.13L13.56 20.87ZM23.5 32.78C14.8 32.78 9.25 31.77 6.94 30.91C6.49 30.75 6.15 30.58 5.94 30.44C6.67 29.92 9.01 29.2 12.91 28.7C15.67 28.35 19.19 28.1 23.5 28.1C27.81 28.1 31.34 28.35 34.09 28.7C38 29.2 40.34 29.92 41.06 30.44C40.86 30.59 40.52 30.75 40.07 30.91C37.76 31.77 32.21 32.78 23.5 32.78ZM2.25 13.09C2.25 11.81 3.32 10.76 4.64 10.76C5.95 10.76 7.02 11.81 7.02 13.09C7.02 14.38 5.95 15.43 4.64 15.43C3.32 15.43 2.25 14.38 2.25 13.09ZM42.37 15.43C41.06 15.43 39.99 14.38 39.99 13.09C39.99 11.81 41.06 10.76 42.37 10.76C43.69 10.76 44.76 11.81 44.76 13.09C44.76 14.38 43.69 15.43 42.37 15.43Z" />
		</g>
	</g>
</svg>