<svg xmlns="http://www.w3.org/2000/svg" viewBox="0 0 40 40" width="40" height="40">
	<style>
		tspan { white-space:pre }
		.shp0 { fill: #f16d7f } 
	</style>
	<g id="Feature">
		<g id="Feature box">
			<path id="Forma 1" class="shp0" d="M24.78 18.5C22.89 18.5 21.32 20.13 21.32 23.06C21.34 25.97 22.89 27.43 24.67 27.43C26.5 27.43 28.09 25.91 28.09 22.84C28.09 20.07 26.79 18.5 24.78 18.5ZM24.72 26.24C23.53 26.24 22.82 24.83 22.84 22.98C22.84 21.14 23.51 19.69 24.72 19.69C26.06 19.69 26.57 21.16 26.57 22.93C26.57 24.85 25.99 26.24 24.72 26.24ZM18.77 16.82C18.77 14.05 17.45 12.48 15.44 12.48C13.55 12.48 11.98 14.12 11.98 17.02C12.01 19.95 13.55 21.41 15.33 21.41C17.18 21.41 18.77 19.89 18.77 16.82ZM13.53 16.96C13.53 15.12 14.17 13.67 15.38 13.67C16.72 13.67 17.23 15.14 17.23 16.91C17.23 18.84 16.65 20.22 15.38 20.22C14.17 20.22 13.48 18.81 13.53 16.96ZM23.61 12.64L15.2 27.39L16.43 27.39L24.85 12.64L23.61 12.64ZM36.58 22.97L40 20L36.58 17.03L38.79 13.05L34.59 11.45L35.32 6.95L30.82 6.9L30 2.41L25.76 3.93L23.47 0L20 2.9L16.53 0L14.24 3.93L10 2.41L9.18 6.9L4.68 6.95L5.42 11.45L1.2 13.05L3.42 17.03L0 20L3.42 22.97L1.2 26.95L5.41 28.55L4.68 33.05L9.18 33.1L10 37.59L14.24 36.07L16.53 40L20 37.1L23.47 40L25.76 36.07L30 37.59L30.82 33.1L35.32 33.05L34.58 28.55L38.79 26.95L36.58 22.97ZM33.92 26.75L32.46 27.3L32.71 28.87L33.08 31.15L30.8 31.17L29.24 31.19L28.96 32.75L28.54 35.03L26.39 34.26L24.92 33.73L24.13 35.09L22.97 37.09L21.21 35.61L20 34.6L18.79 35.61L17.03 37.09L15.87 35.09L15.08 33.73L13.61 34.26L11.46 35.02L11.04 32.75L10.75 31.19L9.19 31.17L6.91 31.15L7.28 28.86L7.54 27.3L6.08 26.74L3.94 25.93L5.07 23.92L5.83 22.54L4.65 21.51L2.92 20L4.65 18.49L5.83 17.46L5.07 16.08L3.95 14.06L6.08 13.25L7.54 12.69L7.29 11.13L6.91 8.85L9.2 8.82L10.76 8.81L11.04 7.25L11.46 4.97L13.61 5.74L15.08 6.26L15.87 4.9L17.03 2.91L18.79 4.38L20 5.39L21.2 4.38L22.97 2.91L24.13 4.91L24.92 6.27L26.39 5.74L28.54 4.97L28.96 7.25L29.24 8.81L30.8 8.82L33.09 8.85L32.72 11.13L32.46 12.7L33.92 13.25L36.05 14.06L34.93 16.08L34.17 17.46L35.35 18.49L37.08 20L35.35 21.51L34.17 22.54L34.93 23.92L36.05 25.93L33.92 26.75Z" />
		</g>
	</g>
</svg>