<svg xmlns="http://www.w3.org/2000/svg" viewBox="0 0 52 32" width="52" height="32">
	<style>
		tspan { white-space:pre }
		.shp0 { fill: #f16d7f } 
	</style>
	<g id="Feature">
		<g id="Feature box">
			<path id="Forma 1" class="shp0" d="M11.11 25.42C10.6 25.42 10.18 25.84 10.18 26.36C10.18 26.86 9.78 27.26 9.29 27.26C8.8 27.26 8.4 26.86 8.4 26.36C8.4 25.86 8.8 25.45 9.29 25.45C9.8 25.45 10.22 25.03 10.22 24.51C10.22 23.99 9.8 23.57 9.29 23.57C7.77 23.57 6.54 24.82 6.54 26.36C6.54 27.89 7.77 29.14 9.29 29.14C10.81 29.14 12.04 27.89 12.04 26.36C12.04 25.84 11.62 25.42 11.11 25.42ZM44.58 25.42C44.07 25.42 43.65 25.84 43.65 26.36C43.65 26.86 43.25 27.26 42.76 27.26C42.27 27.26 41.87 26.86 41.87 26.36C41.87 25.86 42.27 25.45 42.76 25.45C43.27 25.45 43.69 25.03 43.69 24.51C43.69 23.99 43.27 23.57 42.76 23.57C41.24 23.57 40.01 24.82 40.01 26.36C40.01 27.89 41.24 29.14 42.76 29.14C44.28 29.14 45.51 27.89 45.51 26.36C45.51 25.84 45.09 25.42 44.58 25.42ZM51.87 13.4L48.31 7.29C47.09 5.23 45.94 4.02 43.63 3.82C43.56 3.8 43.48 3.79 43.4 3.79L36.27 3.79L36.27 1.88C36.27 0.84 35.44 0 34.42 0L1.86 0C0.83 0 0 0.84 0 1.88L0 25.42C0 26.45 0.83 27.3 1.86 27.3L3.79 27.3C4.24 29.96 6.53 32 9.29 32C12.05 32 14.34 29.96 14.78 27.3L37.27 27.3C37.71 29.96 40 32 42.76 32C45.52 32 47.81 29.96 48.26 27.3L51.07 27.3C51.58 27.3 52 26.88 52 26.36L52 13.87C52 13.71 51.96 13.54 51.87 13.4ZM48.33 17C48.33 16.48 48.75 16.06 49.26 16.06L50.14 16.06L50.14 17.91L48.33 17.91L48.33 17ZM49.59 13.18L41.06 13.18C40.99 13.16 40.93 13.16 40.87 13.16C40.34 13.16 39.92 12.73 39.92 12.2L39.92 8.43L46.82 8.43L49.59 13.18ZM1.86 1.88L34.42 1.88L34.42 25.42L14.78 25.42C14.34 22.75 12.05 20.71 9.29 20.71C6.53 20.71 4.24 22.75 3.79 25.42L1.86 25.42L1.86 1.88ZM9.29 30.12C7.24 30.12 5.57 28.43 5.57 26.36C5.57 24.28 7.24 22.59 9.29 22.59C11.34 22.59 13.01 24.28 13.01 26.36C13.01 28.43 11.34 30.12 9.29 30.12ZM42.76 30.12C40.71 30.12 39.04 28.43 39.04 26.36C39.04 24.28 40.71 22.59 42.76 22.59C44.81 22.59 46.48 24.28 46.48 26.36C46.48 28.43 44.81 30.12 42.76 30.12ZM48.26 25.42C47.81 22.75 45.52 20.71 42.76 20.71C40 20.71 37.71 22.75 37.27 25.42L36.27 25.42L36.27 5.67L42.9 5.67C44.08 5.67 44.82 5.92 45.47 6.55L38.99 6.55C38.48 6.55 38.06 6.97 38.06 7.49L38.06 12.2C38.06 13.68 39.2 14.91 40.64 15.03C40.71 15.05 40.79 15.06 40.87 15.06L47.25 15.06C46.77 15.56 46.48 16.25 46.48 17L46.48 18.85C46.48 19.37 46.89 19.79 47.41 19.79L50.14 19.79L50.14 25.42L48.26 25.42L48.26 25.42ZM4.68 5.67L31.59 5.67C32.1 5.67 32.52 5.25 32.52 4.73C32.52 4.21 32.1 3.79 31.59 3.79L4.68 3.79C4.17 3.79 3.75 4.21 3.75 4.73C3.75 5.25 4.17 5.67 4.68 5.67Z" />
		</g>
	</g>
</svg>